<svg id="visual" viewBox="0 0 1200 100" width="1200" height="100" xmlns="http://www.w3.org/2000/svg" xmlns:xlink="http://www.w3.org/1999/xlink" version="1.1"><rect x="0" y="0" width="1200" height="100" fill="#2D8CFF"></rect><path d="M0 71L9.2 69.2C18.3 67.3 36.7 63.7 54.8 60C73 56.3 91 52.7 109.2 55C127.3 57.3 145.7 65.7 163.8 71.2C182 76.7 200 79.3 218.2 79C236.3 78.7 254.7 75.3 272.8 69.8C291 64.3 309 56.7 327.2 57C345.3 57.3 363.7 65.7 381.8 67.8C400 70 418 66 436.2 67.7C454.3 69.3 472.7 76.7 490.8 79.7C509 82.7 527 81.3 545.2 77.3C563.3 73.3 581.7 66.7 600 67.3C618.3 68 636.7 76 654.8 75.7C673 75.3 691 66.7 709.2 63.3C727.3 60 745.7 62 763.8 63.8C782 65.7 800 67.3 818.2 67C836.3 66.7 854.7 64.3 872.8 62.5C891 60.7 909 59.3 927.2 60.8C945.3 62.3 963.7 66.7 981.8 64.8C1000 63 1018 55 1036.2 56.8C1054.3 58.7 1072.7 70.3 1090.8 75.5C1109 80.7 1127 79.3 1145.2 77.8C1163.3 76.3 1181.7 74.7 1190.8 73.8L1200 73L1200 101L1190.8 101C1181.7 101 1163.3 101 1145.2 101C1127 101 1109 101 1090.8 101C1072.7 101 1054.3 101 1036.2 101C1018 101 1000 101 981.8 101C963.7 101 945.3 101 927.2 101C909 101 891 101 872.8 101C854.7 101 836.3 101 818.2 101C800 101 782 101 763.8 101C745.7 101 727.3 101 709.2 101C691 101 673 101 654.8 101C636.7 101 618.3 101 600 101C581.7 101 563.3 101 545.2 101C527 101 509 101 490.8 101C472.7 101 454.3 101 436.2 101C418 101 400 101 381.8 101C363.7 101 345.3 101 327.2 101C309 101 291 101 272.8 101C254.7 101 236.3 101 218.2 101C200 101 182 101 163.8 101C145.7 101 127.3 101 109.2 101C91 101 73 101 54.8 101C36.7 101 18.3 101 9.2 101L0 101Z" fill="#fff" stroke-linecap="round" stroke-linejoin="miter"></path></svg>