<svg id="visual" viewBox="0 0 900 100" width="900" height="100" xmlns="http://www.w3.org/2000/svg" xmlns:xlink="http://www.w3.org/1999/xlink" version="1.1"><rect x="0" y="0" width="900" height="100" fill="#2D8CFF"></rect><path d="M0 47L8.8 47.3C17.7 47.7 35.3 48.3 53 49C70.7 49.7 88.3 50.3 106 49.3C123.7 48.3 141.3 45.7 159 44.7C176.7 43.7 194.3 44.3 212 44.8C229.7 45.3 247.3 45.7 265 48C282.7 50.3 300.3 54.7 318 56.5C335.7 58.3 353.3 57.7 371 56.8C388.7 56 406.3 55 423.8 56C441.3 57 458.7 60 476.2 58C493.7 56 511.3 49 529 47.8C546.7 46.7 564.3 51.3 582 53.3C599.7 55.3 617.3 54.7 635 53C652.7 51.3 670.3 48.7 688 48.7C705.7 48.7 723.3 51.3 741 50.8C758.7 50.3 776.3 46.7 794 48.2C811.7 49.7 829.3 56.3 847 58C864.7 59.7 882.3 56.3 891.2 54.7L900 53L900 101L891.2 101C882.3 101 864.7 101 847 101C829.3 101 811.7 101 794 101C776.3 101 758.7 101 741 101C723.3 101 705.7 101 688 101C670.3 101 652.7 101 635 101C617.3 101 599.7 101 582 101C564.3 101 546.7 101 529 101C511.3 101 493.7 101 476.2 101C458.7 101 441.3 101 423.8 101C406.3 101 388.7 101 371 101C353.3 101 335.7 101 318 101C300.3 101 282.7 101 265 101C247.3 101 229.7 101 212 101C194.3 101 176.7 101 159 101C141.3 101 123.7 101 106 101C88.3 101 70.7 101 53 101C35.3 101 17.7 101 8.8 101L0 101Z" fill="#ffffff"></path><path d="M0 58L8.8 57.3C17.7 56.7 35.3 55.3 53 57.3C70.7 59.3 88.3 64.7 106 64.2C123.7 63.7 141.3 57.3 159 56.2C176.7 55 194.3 59 212 59.3C229.7 59.7 247.3 56.3 265 55.7C282.7 55 300.3 57 318 57.5C335.7 58 353.3 57 371 57.5C388.7 58 406.3 60 423.8 60.7C441.3 61.3 458.7 60.7 476.2 60.2C493.7 59.7 511.3 59.3 529 57.8C546.7 56.3 564.3 53.7 582 53.3C599.7 53 617.3 55 635 56.7C652.7 58.3 670.3 59.7 688 60.8C705.7 62 723.3 63 741 62.7C758.7 62.3 776.3 60.7 794 59.2C811.7 57.7 829.3 56.3 847 58C864.7 59.7 882.3 64.3 891.2 66.7L900 69L900 101L891.2 101C882.3 101 864.7 101 847 101C829.3 101 811.7 101 794 101C776.3 101 758.7 101 741 101C723.3 101 705.7 101 688 101C670.3 101 652.7 101 635 101C617.3 101 599.7 101 582 101C564.3 101 546.7 101 529 101C511.3 101 493.7 101 476.2 101C458.7 101 441.3 101 423.8 101C406.3 101 388.7 101 371 101C353.3 101 335.7 101 318 101C300.3 101 282.7 101 265 101C247.3 101 229.7 101 212 101C194.3 101 176.7 101 159 101C141.3 101 123.7 101 106 101C88.3 101 70.7 101 53 101C35.3 101 17.7 101 8.8 101L0 101Z" fill="#ffffff"></path><path d="M0 73L8.8 71.3C17.7 69.7 35.3 66.3 53 64.5C70.7 62.7 88.3 62.3 106 63.8C123.7 65.3 141.3 68.7 159 69.5C176.7 70.3 194.3 68.7 212 67C229.7 65.3 247.3 63.7 265 63C282.7 62.3 300.3 62.7 318 63.3C335.7 64 353.3 65 371 66.2C388.7 67.3 406.3 68.7 423.8 68C441.3 67.3 458.7 64.7 476.2 64.2C493.7 63.7 511.3 65.3 529 66.2C546.7 67 564.3 67 582 67C599.7 67 617.3 67 635 67.2C652.7 67.3 670.3 67.7 688 68.5C705.7 69.3 723.3 70.7 741 70.8C758.7 71 776.3 70 794 69.3C811.7 68.7 829.3 68.3 847 68.2C864.7 68 882.3 68 891.2 68L900 68L900 101L891.2 101C882.3 101 864.7 101 847 101C829.3 101 811.7 101 794 101C776.3 101 758.7 101 741 101C723.3 101 705.7 101 688 101C670.3 101 652.7 101 635 101C617.3 101 599.7 101 582 101C564.3 101 546.7 101 529 101C511.3 101 493.7 101 476.2 101C458.7 101 441.3 101 423.8 101C406.3 101 388.7 101 371 101C353.3 101 335.7 101 318 101C300.3 101 282.7 101 265 101C247.3 101 229.7 101 212 101C194.3 101 176.7 101 159 101C141.3 101 123.7 101 106 101C88.3 101 70.7 101 53 101C35.3 101 17.7 101 8.8 101L0 101Z" fill="#ffffff"></path><path d="M0 72L8.8 72.5C17.7 73 35.3 74 53 76C70.7 78 88.3 81 106 82.2C123.7 83.3 141.3 82.7 159 81C176.7 79.3 194.3 76.7 212 75C229.7 73.3 247.3 72.7 265 72.7C282.7 72.7 300.3 73.3 318 74.2C335.7 75 353.3 76 371 77.8C388.7 79.7 406.3 82.3 423.8 82.3C441.3 82.3 458.7 79.7 476.2 78C493.7 76.3 511.3 75.7 529 76.7C546.7 77.7 564.3 80.3 582 81C599.7 81.7 617.3 80.3 635 78.8C652.7 77.3 670.3 75.7 688 75.8C705.7 76 723.3 78 741 79.2C758.7 80.3 776.3 80.7 794 79.8C811.7 79 829.3 77 847 76.7C864.7 76.3 882.3 77.7 891.2 78.3L900 79L900 101L891.2 101C882.3 101 864.7 101 847 101C829.3 101 811.7 101 794 101C776.3 101 758.7 101 741 101C723.3 101 705.7 101 688 101C670.3 101 652.7 101 635 101C617.3 101 599.7 101 582 101C564.3 101 546.7 101 529 101C511.3 101 493.7 101 476.2 101C458.7 101 441.3 101 423.8 101C406.3 101 388.7 101 371 101C353.3 101 335.7 101 318 101C300.3 101 282.7 101 265 101C247.3 101 229.7 101 212 101C194.3 101 176.7 101 159 101C141.3 101 123.7 101 106 101C88.3 101 70.7 101 53 101C35.3 101 17.7 101 8.8 101L0 101Z" fill="#ffffff"></path><path d="M0 82L8.8 83C17.7 84 35.3 86 53 87.5C70.7 89 88.3 90 106 90.2C123.7 90.3 141.3 89.7 159 89.3C176.7 89 194.3 89 212 88.8C229.7 88.7 247.3 88.3 265 88.5C282.7 88.7 300.3 89.3 318 90.2C335.7 91 353.3 92 371 91C388.7 90 406.3 87 423.8 85.3C441.3 83.7 458.7 83.3 476.2 84.2C493.7 85 511.3 87 529 88.2C546.7 89.3 564.3 89.7 582 88.5C599.7 87.3 617.3 84.7 635 84C652.7 83.3 670.3 84.7 688 85.5C705.7 86.3 723.3 86.7 741 87.2C758.7 87.7 776.3 88.3 794 89.3C811.7 90.3 829.3 91.7 847 92.2C864.7 92.7 882.3 92.3 891.2 92.2L900 92L900 101L891.2 101C882.3 101 864.7 101 847 101C829.3 101 811.7 101 794 101C776.3 101 758.7 101 741 101C723.3 101 705.7 101 688 101C670.3 101 652.7 101 635 101C617.3 101 599.7 101 582 101C564.3 101 546.7 101 529 101C511.3 101 493.7 101 476.2 101C458.7 101 441.3 101 423.8 101C406.3 101 388.7 101 371 101C353.3 101 335.7 101 318 101C300.3 101 282.7 101 265 101C247.3 101 229.7 101 212 101C194.3 101 176.7 101 159 101C141.3 101 123.7 101 106 101C88.3 101 70.7 101 53 101C35.3 101 17.7 101 8.8 101L0 101Z" fill="#ffffff"></path></svg>