<svg id="visual" viewBox="0 0 900 100" width="900" height="100" xmlns="http://www.w3.org/2000/svg" xmlns:xlink="http://www.w3.org/1999/xlink" version="1.1"><rect x="0" y="0" width="900" height="100" fill="#2D8CFF"></rect><path d="M0 49L10.7 50.3C21.3 51.7 42.7 54.3 64.2 54.7C85.7 55 107.3 53 128.8 51.5C150.3 50 171.7 49 193 49.7C214.3 50.3 235.7 52.7 257 53.3C278.3 54 299.7 53 321.2 51.8C342.7 50.7 364.3 49.3 385.8 51C407.3 52.7 428.7 57.3 450 60C471.3 62.7 492.7 63.3 514.2 61.3C535.7 59.3 557.3 54.7 578.8 53C600.3 51.3 621.7 52.7 643 54.8C664.3 57 685.7 60 707 59.7C728.3 59.3 749.7 55.7 771.2 55.2C792.7 54.7 814.3 57.3 835.8 56.7C857.3 56 878.7 52 889.3 50L900 48L900 101L889.3 101C878.7 101 857.3 101 835.8 101C814.3 101 792.7 101 771.2 101C749.7 101 728.3 101 707 101C685.7 101 664.3 101 643 101C621.7 101 600.3 101 578.8 101C557.3 101 535.7 101 514.2 101C492.7 101 471.3 101 450 101C428.7 101 407.3 101 385.8 101C364.3 101 342.7 101 321.2 101C299.7 101 278.3 101 257 101C235.7 101 214.3 101 193 101C171.7 101 150.3 101 128.8 101C107.3 101 85.7 101 64.2 101C42.7 101 21.3 101 10.7 101L0 101Z" fill="#f6f7f9"></path><path d="M0 64L10.7 64.3C21.3 64.7 42.7 65.3 64.2 65.5C85.7 65.7 107.3 65.3 128.8 66C150.3 66.7 171.7 68.3 193 68.3C214.3 68.3 235.7 66.7 257 65.5C278.3 64.3 299.7 63.7 321.2 64.2C342.7 64.7 364.3 66.3 385.8 66.8C407.3 67.3 428.7 66.7 450 65.5C471.3 64.3 492.7 62.7 514.2 62.2C535.7 61.7 557.3 62.3 578.8 61.8C600.3 61.3 621.7 59.7 643 59.7C664.3 59.7 685.7 61.3 707 61.3C728.3 61.3 749.7 59.7 771.2 60.2C792.7 60.7 814.3 63.3 835.8 63.3C857.3 63.3 878.7 60.7 889.3 59.3L900 58L900 101L889.3 101C878.7 101 857.3 101 835.8 101C814.3 101 792.7 101 771.2 101C749.7 101 728.3 101 707 101C685.7 101 664.3 101 643 101C621.7 101 600.3 101 578.8 101C557.3 101 535.7 101 514.2 101C492.7 101 471.3 101 450 101C428.7 101 407.3 101 385.8 101C364.3 101 342.7 101 321.2 101C299.7 101 278.3 101 257 101C235.7 101 214.3 101 193 101C171.7 101 150.3 101 128.8 101C107.3 101 85.7 101 64.2 101C42.7 101 21.3 101 10.7 101L0 101Z" fill="#f8f9fa"></path><path d="M0 68L10.7 67.2C21.3 66.3 42.7 64.7 64.2 66.2C85.7 67.7 107.3 72.3 128.8 72.5C150.3 72.7 171.7 68.3 193 67.2C214.3 66 235.7 68 257 69C278.3 70 299.7 70 321.2 69C342.7 68 364.3 66 385.8 65C407.3 64 428.7 64 450 65.5C471.3 67 492.7 70 514.2 71C535.7 72 557.3 71 578.8 69.5C600.3 68 621.7 66 643 66C664.3 66 685.7 68 707 68.8C728.3 69.7 749.7 69.3 771.2 69.2C792.7 69 814.3 69 835.8 69C857.3 69 878.7 69 889.3 69L900 69L900 101L889.3 101C878.7 101 857.3 101 835.8 101C814.3 101 792.7 101 771.2 101C749.7 101 728.3 101 707 101C685.7 101 664.3 101 643 101C621.7 101 600.3 101 578.8 101C557.3 101 535.7 101 514.2 101C492.7 101 471.3 101 450 101C428.7 101 407.3 101 385.8 101C364.3 101 342.7 101 321.2 101C299.7 101 278.3 101 257 101C235.7 101 214.3 101 193 101C171.7 101 150.3 101 128.8 101C107.3 101 85.7 101 64.2 101C42.7 101 21.3 101 10.7 101L0 101Z" fill="#f9fafb"></path><path d="M0 72L10.7 73.2C21.3 74.3 42.7 76.7 64.2 78.2C85.7 79.7 107.3 80.3 128.8 79.5C150.3 78.7 171.7 76.3 193 75.3C214.3 74.3 235.7 74.7 257 75.7C278.3 76.7 299.7 78.3 321.2 78.3C342.7 78.3 364.3 76.7 385.8 75.3C407.3 74 428.7 73 450 73.5C471.3 74 492.7 76 514.2 76.3C535.7 76.7 557.3 75.3 578.8 75.8C600.3 76.3 621.7 78.7 643 79.7C664.3 80.7 685.7 80.3 707 78.8C728.3 77.3 749.7 74.7 771.2 74.5C792.7 74.3 814.3 76.7 835.8 77.2C857.3 77.7 878.7 76.3 889.3 75.7L900 75L900 101L889.3 101C878.7 101 857.3 101 835.8 101C814.3 101 792.7 101 771.2 101C749.7 101 728.3 101 707 101C685.7 101 664.3 101 643 101C621.7 101 600.3 101 578.8 101C557.3 101 535.7 101 514.2 101C492.7 101 471.3 101 450 101C428.7 101 407.3 101 385.8 101C364.3 101 342.7 101 321.2 101C299.7 101 278.3 101 257 101C235.7 101 214.3 101 193 101C171.7 101 150.3 101 128.8 101C107.3 101 85.7 101 64.2 101C42.7 101 21.3 101 10.7 101L0 101Z" fill="#fbfcfd"></path><path d="M0 84L10.7 83.5C21.3 83 42.7 82 64.2 81.8C85.7 81.7 107.3 82.3 128.8 82.3C150.3 82.3 171.7 81.7 193 81.2C214.3 80.7 235.7 80.3 257 80.7C278.3 81 299.7 82 321.2 82.8C342.7 83.7 364.3 84.3 385.8 83.7C407.3 83 428.7 81 450 81.3C471.3 81.7 492.7 84.3 514.2 85.3C535.7 86.3 557.3 85.7 578.8 84.8C600.3 84 621.7 83 643 82C664.3 81 685.7 80 707 79.8C728.3 79.7 749.7 80.3 771.2 80.7C792.7 81 814.3 81 835.8 81C857.3 81 878.7 81 889.3 81L900 81L900 101L889.3 101C878.7 101 857.3 101 835.8 101C814.3 101 792.7 101 771.2 101C749.7 101 728.3 101 707 101C685.7 101 664.3 101 643 101C621.7 101 600.3 101 578.8 101C557.3 101 535.7 101 514.2 101C492.7 101 471.3 101 450 101C428.7 101 407.3 101 385.8 101C364.3 101 342.7 101 321.2 101C299.7 101 278.3 101 257 101C235.7 101 214.3 101 193 101C171.7 101 150.3 101 128.8 101C107.3 101 85.7 101 64.2 101C42.7 101 21.3 101 10.7 101L0 101Z" fill="#fdfdfe"></path><path d="M0 89L10.7 88.8C21.3 88.7 42.7 88.3 64.2 89C85.7 89.7 107.3 91.3 128.8 92C150.3 92.7 171.7 92.3 193 91.7C214.3 91 235.7 90 257 89.3C278.3 88.7 299.7 88.3 321.2 88.2C342.7 88 364.3 88 385.8 88.2C407.3 88.3 428.7 88.7 450 89.3C471.3 90 492.7 91 514.2 91.7C535.7 92.3 557.3 92.7 578.8 92.2C600.3 91.7 621.7 90.3 643 89.5C664.3 88.7 685.7 88.3 707 88.7C728.3 89 749.7 90 771.2 91C792.7 92 814.3 93 835.8 93.2C857.3 93.3 878.7 92.7 889.3 92.3L900 92L900 101L889.3 101C878.7 101 857.3 101 835.8 101C814.3 101 792.7 101 771.2 101C749.7 101 728.3 101 707 101C685.7 101 664.3 101 643 101C621.7 101 600.3 101 578.8 101C557.3 101 535.7 101 514.2 101C492.7 101 471.3 101 450 101C428.7 101 407.3 101 385.8 101C364.3 101 342.7 101 321.2 101C299.7 101 278.3 101 257 101C235.7 101 214.3 101 193 101C171.7 101 150.3 101 128.8 101C107.3 101 85.7 101 64.2 101C42.7 101 21.3 101 10.7 101L0 101Z" fill="#ffffff"></path></svg>